<?xml version="1.0" encoding="UTF-8"?><svg id="a" xmlns="http://www.w3.org/2000/svg" xmlns:xlink="http://www.w3.org/1999/xlink" viewBox="0 0 1200 1200"><defs><linearGradient id="b" x1="58.58" y1="58.58" x2="1141.42" y2="1141.42" gradientUnits="userSpaceOnUse"><stop offset="0" stop-color="#ff40f2"/><stop offset="1" stop-color="#80267d"/></linearGradient></defs><rect width="1200" height="1200" rx="200" ry="200" style="fill:url(#b); stroke-width:0px;"/><path d="m711.54,555.53c17.79-18.75,26.68-42.86,26.68-72.36s-8.89-55.44-26.68-75c-17.79-19.54-43.83-29.32-78.13-29.32h-99.04v457.21l72.6,113.94h-313.94l72.59-113.94v-471.64l-72.59-114.42h340.38c55.77,0,104.16,9.78,145.2,29.33,41.02,19.55,72.67,46.71,94.95,81.49,22.27,34.78,33.41,75.24,33.41,121.39s-11.14,86.54-33.41,121.16c-22.28,34.61-53.93,61.53-94.95,80.76l266.14,510.84c-9.63,2.21-19.52,3.71-29.62,4.47l-415.13-486.46v-129.33h33.41c34.3,0,60.34-9.37,78.13-28.12Z" style="fill:#fff; stroke-width:0px;"/></svg>