<svg xmlns="http://www.w3.org/2000/svg" xmlns:xlink="http://www.w3.org/1999/xlink" viewBox="0 0 24 24"><defs><linearGradient id="a"><stop offset="0" stop-color="#c4b5fd"/><stop offset="1" stop-color="#5b21b6"/></linearGradient><linearGradient xlink:href="#a" id="b" x1="2.59" x2="20.51" y1="2.59" y2="20.66" gradientUnits="userSpaceOnUse"/></defs><path fill="url(#b)" d="M6.23 0h11.54A6.22 6.22 0 0 1 24 6.23v11.54A6.22 6.22 0 0 1 17.77 24H6.23A6.22 6.22 0 0 1 0 17.77V6.23A6.22 6.22 0 0 1 6.23 0Z"/><path fill="#fff" d="M15.16 14.77a11.9 11.9 0 0 1-4.08 1.77 6.82 6.82 0 0 1 .03 5.35 6.82 6.82 0 0 0 2.11-1.4 6.82 6.82 0 0 0 1.94-5.72zM2.15 13a6.82 6.82 0 0 1 5.37.02 11.9 11.9 0 0 1 1.77-4.1 6.82 6.82 0 0 0-5.72 1.92A6.82 6.82 0 0 0 2.15 13ZM19.1 5a10.7 10.7 0 0 0-7.57 3.09 10.7 10.7 0 0 0-2.9 5.53c.37.23.7.5 1.02.8.3.3.58.65.82 1A10.7 10.7 0 0 0 19.11 5z"/></svg>