<svg xmlns="http://www.w3.org/2000/svg" viewBox="0 0 1200 1200"><defs><linearGradient id="a" x1="131.6" x2="1027.6" y1="1074.5" y2="170.7" gradientTransform="matrix(1 0 0 -1 0 1202)" gradientUnits="userSpaceOnUse"><stop offset="0" stop-color="#c4b5fd"/><stop offset="1" stop-color="#5b21b6"/></linearGradient></defs><path fill="url(#a)" d="M312 0h577c172 0 311 139 311 312v577c0 172-139 311-311 311H312A311 311 0 0 1 0 889V312C0 139 139 0 312 0"/><path fill="#fff" d="M758 738q-94 63-204 89c37 85 37 182 1 268q60-26 106-70c75-75 111-181 97-287ZM108 650c86-36 182-36 268 1q24-111 89-205a341 341 0 0 0-286 96q-47 47-71 108M955 250a536 536 0 0 0-426 211q-74 99-97 220a333 333 0 0 1 91 90 534 534 0 0 0 432-521"/></svg>