<svg xmlns="http://www.w3.org/2000/svg" viewBox="0 0 800 800"><path fill="#8e5cd9" d="M400 566.3S535.5 676.7 643.1 658c133-23.2 174.8-135 142.1-211.1-32.5-75.9-125.4-76.3-150.6-23.3-13.7 28.8.6 63.2 29.6 64.5 29.7 1.3 30.3-25 26-30.4-6.2-7.8-12.4.7-20.4 0-9.3-.7-8.1-22.5 6.8-26.6 13.5-3.7 34.5 9.7 32.1 43.7-1.7 23.8-23.6 54.3-66.5 51.4-46.5-3.2-46.4-61.3-42.4-89.7 7-50.3 36.7-96.7 34.6-173.5C630.7 126.6 504.9 56 400 56s-230.7 70.6-234.4 207c-2.1 76.8 27.6 123.2 34.6 173.5 3.9 28.4 4.1 86.5-42.4 89.7-42.9 3-64.8-27.6-66.5-51.4-2.4-34 18.6-47.4 32.1-43.7 14.9 4.1 16.1 25.8 6.8 26.6-7.9.6-14.2-7.9-20.4 0-4.3 5.4-3.6 31.7 26 30.4 29-1.3 43.2-35.6 29.6-64.5-25.2-53.1-118.1-52.6-150.6 23.3C-17.8 523 23.9 634.8 156.9 658 264.5 676.8 400 566.3 400 566.3"/><path fill="#c85fff" d="M537.3 217c-46.3-4.8-81-14.4-137.3-14.4s-91 9.6-137.3 14.4c-43.9 4.6-45.6-24.8-26.3-54.2 28.4-43.2 79.1-79.7 163.6-79.7s135.2 36.6 163.6 79.7c19.3 29.4 17.6 58.7-26.3 54.2"/><path fill="#fff" d="M599.8 436.4c5.2-96.6 43.6-151.9 1.5-246.7C575.1 130.5 495.6 77.4 400 77.4s-175.1 53.2-201.4 112.3c-42.1 94.9-3.6 150.1 1.5 246.7-7-50.3-36.7-96.7-34.6-173.5 3.8-136.4 129.5-207 234.4-207s230.7 70.6 234.4 207c2.1 76.7-27.6 123.2-34.6 173.5Z" opacity=".5"/><path fill="#6f42c1" d="M199.7 483.1c-4.2 21.7-15.5 41.3-42 43.1-42.9 3-64.8-27.6-66.5-51.4a64 64 0 0 1 .7-15.5l-.8-4.7a69 69 0 0 0 35.5 98.8c63.5 27.1 125.9-22.1 120-57.8-2.8-16.9-30-24.2-46.8-12.6Z"/><path fill="#6f42c1" d="M95.1 490.5a49 49 0 0 1-3.8-15.7c-2.4-34 18.6-47.4 32.1-43.7 14.9 4.1 16.1 25.8 6.8 26.6-7.9.6-14.2-7.9-20.4 0-2.8 3.5-3.5 15.7 4.4 23.6-.3-3.8-.8-12.5.2-14.9 1.5-3.7 7.8 1.6 14.4 2.3 10.1 1 19.5-3.3 21.6-19.4 2.6-20.5-19.3-44.2-43-33.2-24.8 11.6-31.6 49.8-12.2 74.5ZM330.9 612.5l-54-57.6s-38.4 62.2-100.1 47.4C66.2 575.8 56.9 525.4 47.2 501.6c-4.6-11.2-15.5-19.7-24.9-18.5C14.1 623 182.3 687.9 331 612.5Z"/><path fill="#f4b8ff" d="M61.3 452.1c22.7-44.9 52.4-41.3 53-54.8.4-9.1-17.3-10.8-26.4-9.8l-2.9.5-.8.2a96 96 0 0 0-69.4 58.7C-10.4 505.7 8.7 585.7 80 629.8l34.4-47c-66.9-14.5-69.2-98.6-53-130.6Z"/><path fill="#d480e8" d="m90.8 614.9 23.5-32.2c-32.4-7-49.7-30.4-57-56.3-4.8-9.6-7.5-18.3-10.2-24.9-4.6-11.2-15.5-19.7-24.9-18.5a140 140 0 0 0 68.6 131.8Z"/><path fill="#6f42c1" d="M35.2 415.4a93 93 0 0 1 29.9-21.2 9 9 0 0 1 3.2 2.3c5.2 5.7 2.6 16.5-5.9 24.2s-19.5 9.4-24.7 3.7a12 12 0 0 1-2.6-9ZM4.9 485.1q2.5 4.4 6.9 5.6c7.5 1.8 15.7-5.7 18.4-16.8s-1.1-21.6-8.6-23.4q-4.7-1-9.3 2.2a135 135 0 0 0-7.5 32.4Zm18.5 74c7.3-2.5 10.2-13.2 6.6-24s-12.5-17.6-19.8-15.2q-2.4.8-4.1 2.7 3 18.6 10.9 36.4 3.3 1 6.4 0ZM65.8 620l1-.7c5.9-4.9 4.7-16-2.6-24.8s-18-11.9-23.9-6.9a11 11 0 0 0-3.1 4.6q12 15 28.6 27.9Z"/><path fill="#8800c1" d="M26.2 483.1q-2-.3-4 0l-.2 4.7q2.3-1.9 4.2-4.7M30 535.1q-1.6-4.6-4.2-8.1 2.3 9.6 5.7 18.5.3-5-1.5-10.4"/><path fill="#fff" d="M76 403.4c56.7-21.7 99.9 19.2 87.2 68.9a50 50 0 0 0 2.2-48.7C140.2 370.5 47.3 371 14.8 446.9a137 137 0 0 0-7.6 81.7c-2.4-42.2 13.7-104 68.8-125.1Z" opacity=".5"/><path fill="#fff" d="M195.3 520.8v-.2c19.8-23.5 18.4-64.1 3.8-91.1l1.1 7.1c3.9 28.4 4.1 86.5-42.4 89.7-42.9 3-64.8-27.6-66.5-51.4a52 52 0 0 1 5.9-30.3c-15.6 11.7-18.9 64 16.9 85.4l.1 1.2c2.1 16.3 22 27.2 44.4 24.4s38.9-18.4 36.8-34.8Z" opacity=".5"/><path fill="#6f42c1" d="M598.8 483.1c4.2 21.7 15.5 41.3 42 43.1 42.9 3 64.8-27.6 66.5-51.4a64 64 0 0 0-.7-15.5l.8-4.7a69 69 0 0 1-35.5 98.8c-63.5 27.1-125.9-22.1-120-57.8 2.8-16.9 30-24.2 46.8-12.6Z"/><path fill="#6f42c1" d="M703.5 490.5a49 49 0 0 0 3.8-15.7c2.4-34-18.6-47.4-32.1-43.7-14.9 4.1-16.1 25.8-6.8 26.6 7.9.6 14.2-7.9 20.4 0 2.8 3.5 3.5 15.7-4.4 23.6.3-3.8.8-12.5-.2-14.9-1.5-3.7-7.8 1.6-14.4 2.3-10.1 1-19.5-3.3-21.6-19.4-2.6-20.5 19.3-44.2 43-33.2 24.8 11.6 31.6 49.8 12.2 74.5ZM467.6 612.5l54-57.6s38.4 62.2 100.1 47.4c110.6-26.5 119.9-76.9 129.6-100.7 4.6-11.2 15.5-19.7 24.9-18.5 8.2 139.9-160 204.8-308.7 129.4Z"/><path fill="#f4b8ff" d="M737.3 452.1c-22.7-44.9-52.4-41.3-53-54.8-.4-9.1 17.3-10.8 26.4-9.8l2.9.5.8.2a96 96 0 0 1 69.4 58.7c25.2 58.8 6.1 138.8-65.2 182.9l-34.4-47c66.9-14.5 69.3-98.6 53-130.6Z"/><path fill="#d480e8" d="m707.7 614.9-23.5-32.2c32.4-7 49.7-30.4 57-56.3 4.8-9.6 7.5-18.3 10.2-24.9 4.6-11.2 15.5-19.7 24.9-18.5a140 140 0 0 1-68.6 131.8Z"/><path fill="#6f42c1" d="M760.8 424.4c-5.2 5.7-16.2 4-24.7-3.7s-11.1-18.6-5.9-24.2q1.4-1.4 3.2-2.3a94 94 0 0 1 29.9 21.2q.7 5.4-2.6 9Zm25.3 28.3a12 12 0 0 0-9.3-2.2c-7.5 1.8-11.3 12.3-8.6 23.4s11 18.6 18.4 16.8q4.4-1.1 6.9-5.6a135 135 0 0 0-7.5-32.4Zm-4.6 106.4q8-17.9 10.9-36.4a9 9 0 0 0-4.1-2.7c-7.3-2.5-16.1 4.3-19.8 15.2s-.7 21.6 6.6 24q3.1 1 6.4 0Zm-20.1 33a10 10 0 0 0-3.1-4.6c-5.9-4.9-16.6-1.8-23.9 6.9s-8.5 19.9-2.6 24.8l1 .7a158 158 0 0 0 28.6-27.9Z"/><path fill="#8800c1" d="M772.3 483.1q2-.3 4 0l.2 4.7q-2.3-1.9-4.2-4.7M768.5 535.1q1.6-4.6 4.2-8.1-2.2 9.6-5.7 18.5-.3-5 1.5-10.4"/><path fill="#fff" d="M722.5 403.4c-56.7-21.7-99.9 19.2-87.2 68.9a50 50 0 0 1-2.2-48.7c25.2-53.1 118.1-52.6 150.6 23.3a137 137 0 0 1 7.6 81.7c2.4-42.2-13.7-104-68.8-125.1Z" opacity=".5"/><path fill="#fff" d="M603.2 520.8v-.2c-19.8-23.5-18.4-64.1-3.8-91.1l-1.1 7.1c-3.9 28.4-4.1 86.5 42.4 89.7 42.9 3 64.8-27.6 66.5-51.4a52 52 0 0 0-5.9-30.3c15.6 11.7 18.9 64-16.9 85.4l-.1 1.2c-2.1 16.3-22 27.2-44.4 24.4s-38.9-18.4-36.8-34.8Z" opacity=".5"/><ellipse cx="306.9" cy="384.4" fill="#18005b" rx="44.2" ry="55.3"/><ellipse cx="286.1" cy="394.7" fill="#fff" opacity=".4" rx="11.8" ry="17.8"/><ellipse cx="322.8" cy="381.9" fill="#fff" rx="15.8" ry="23.9"/><ellipse cx="493.1" cy="384.4" fill="#18005b" rx="44.2" ry="55.3"/><ellipse cx="513.9" cy="394.7" fill="#fff" opacity=".4" rx="11.8" ry="17.8"/><ellipse cx="477.2" cy="381.9" fill="#fff" rx="15.8" ry="23.9"/><path fill="#18005b" d="M400 487.5c46 0 38.6-65.8 38.6-65.8s-20.6 8.7-38.6 8.7-38.6-8.7-38.6-8.7-7.4 65.8 38.6 65.8"/><path fill="#ff80b1" d="M400 458.1a54 54 0 0 0-31.8 10.1c5.6 10.9 15.2 19.4 31.8 19.4s26.2-8.5 31.8-19.4a53 53 0 0 0-31.8-10.1"/><path fill="#18005b" d="M400 492.8a38 38 0 0 1-29.9-12.6c-18.1-20.2-14.1-57.4-13.9-59a5 5 0 0 1 2.6-3.9q2.3-1.2 4.7-.3c.2 0 19.9 8.3 36.6 8.3s36.4-8.2 36.6-8.3q2.4-.9 4.7.3 2.2 1.4 2.6 3.9c.2 1.6 4.1 38.8-13.9 59a38 38 0 0 1-29.9 12.6Zm-33.8-63.7c-.2 10.8.9 31.9 11.7 44.1q8.1 9.1 22.1 9.1c14 0 16.6-3 22.1-9.1 10.8-12.1 11.9-33.2 11.7-44.1-7.9 2.7-21.3 6.5-33.8 6.5s-25.9-3.8-33.8-6.5"/><path fill="#6f42c1" d="M322.4 163c-12.4 11.2-28.7 13.5-36.3 5s-3.7-24.4 8.7-35.6 28.7-13.5 36.3-5 3.7 24.4-8.7 35.6m238.7 68.1c8-8 4.9-24-6.8-35.8-11.8-11.8-27.8-14.9-35.8-6.8s-4.9 24 6.8 35.8c11.8 11.8 27.8 14.9 35.8 6.8m-302.2-16.9c-8.1-3.6-19 3.1-24.3 15s-3.1 24.5 5 28.1 19-3.1 24.3-15 3.1-24.5-5-28.1m213.9-79.1c3.6-8.1-3.1-19-15-24.3s-24.5-3.1-28.1 5 3.1 19 15 24.3 24.5 3.1 28.1-5m-18.3 61.4c4.9-4.9 3.5-14.1-3-20.7s-15.8-7.9-20.7-3-3.5 14.1 3 20.7 15.8 7.9 20.7 3m86-42.1c3.3-3.3 2.1-10-2.9-15s-11.6-6.2-15-2.9c-3.3 3.3-2.1 10 2.9 15s11.6 6.2 15 2.9"/><path fill="#6f42c1" d="M429.6 115.8c-3.6 8.1 3.1 19 15 24.3s24.5 3.1 28.1-5-3.1-19-15-24.3-24.5-3.1-28.1 5M294.8 132.5c-12.4 11.2-16.3 27.2-8.7 35.6s23.9 6.2 36.3-5 16.3-27.2 8.7-35.6-23.9-6.2-36.3 5M454.5 196.5c4.9-4.9 3.5-14.1-3-20.7s-15.8-7.9-20.7-3-3.5 14.1 3 20.7 15.8 7.9 20.7 3M244.5 216.7q7.4 1.4 18.2.3a12 12 0 0 0-3.8-2.8c-4.4-2-9.6-.9-14.4 2.5M462.1 219c-2.7 6 2.3 14 11.1 17.9s18.1 2.3 20.8-3.7-2.3-14-11.1-17.9-18.1-2.3-20.8 3.7"/><path fill="none" stroke="#6f42c1" stroke-linecap="round" stroke-miterlimit="10" stroke-width="8" d="M466 133.8a201.5 201.5 0 0 1 65.6 71.2M478 226.1a49 49 0 0 0 20.2 24.8c17.5 10.9 42.1 11.9 63.9 3M444.3 186.6c2.4-.2 12-.8 20.6 6 12.1 9.6 10.9 25.1 10.8 26.3M531.6 145.5a67 67 0 0 1 12.8 67.8"/><path fill="#18005b" d="M617.8 664.3c-49.5 0-101.4-21.6-138.5-41.4a596 596 0 0 1-79.3-51.2c-8.9 7-39.6 30-79.3 51.2-43.8 23.4-107.9 49.1-164.6 39.2-63.1-11-112-43.2-137.7-90.6a147 147 0 0 1-7.6-126.3 99 99 0 0 1 88.6-62.9c31.1-.6 57.8 14.5 69.7 39.5 8 16.8 7.5 36.4-1.4 51.2a38 38 0 0 1-31.8 19.3c-18.8.8-26.4-8.6-29.4-14.3-4.3-8.4-3.5-18.6-.2-22.9 5.8-7.3 12.4-4.7 16.9-3 2.3.9 4.5 1.7 6.5 1.5 1.6-.1 2-3.4 2-3.8.5-4.8-2.2-12.6-9.6-14.6-4.8-1.3-10.5.3-15.4 4.2s-12.9 14-11.4 35.2c1.5 21.4 21.8 50.2 62 47.5a37 37 0 0 0 27-13.3c17-21 13.2-60.1 11.6-71.6-2.5-18.1-8.1-36-14-54.8-10.3-32.8-22-70.1-20.6-119.3a201 201 0 0 1 80.9-157.9C286.1 71.4 343.6 52 399.9 52s113.8 19.4 157.7 53.2a201 201 0 0 1 80.9 157.9c1.4 49.3-10.3 86.5-20.6 119.3-5.9 18.9-11.5 36.7-14 54.8-1.6 11.5-5.5 50.7 11.6 71.6q9.8 12 27 13.3c40.3 2.8 60.5-26.1 62-47.5 1.5-21.2-6.5-31.1-11.4-35.1-4.8-4-10.6-5.5-15.4-4.2-7.4 2-10.1 9.8-9.6 14.6 0 .4.4 3.6 2 3.8 2 .2 4.2-.7 6.5-1.5 4.4-1.7 11.1-4.3 16.9 3 3.4 4.3 4.1 14.5-.2 22.9-2.9 5.7-10.6 15.2-29.4 14.3a38 38 0 0 1-31.8-19.3 55 55 0 0 1-1.4-51.2c11.9-25 38.6-40.1 69.7-39.5a99 99 0 0 1 88.6 62.9c16.8 39.3 14 86.5-7.6 126.3-25.7 47.4-74.6 79.6-137.7 90.6q-12.9 2.2-26.1 2.2ZM400 560.9l2.6 2.2c1.2 1 115.3 92.8 215 92.8q12.6 0 24.8-2.1c60.5-10.5 107.3-41.2 131.8-86.3a138 138 0 0 0 7.2-119c-17.9-41.8-53.6-57.3-81.1-57.8-27.8-.5-51.5 12.8-61.9 34.7a46 46 0 0 0 1 43.2 30 30 0 0 0 25 15.2q16 .6 21.5-9.8c3.2-6.4 1.9-12.8 1.1-13.8-1.8-2.3-2.7-2.2-7.3-.4a23 23 0 0 1-10.1 2.1c-5.3-.4-9.1-4.9-9.7-11.3-.9-9 4.4-20.3 15.7-23.5 7.4-2 16 .1 22.9 5.8 6.2 5.1 16.3 17.3 14.5 42.2-1.8 24.8-25 58.4-71 55.2a45 45 0 0 1-32.9-16.4c-18.6-23-15.6-62.2-13.4-78.1 2.6-18.8 8.3-37 14.3-56.2 10.1-32.2 21.5-68.7 20.2-116.6C626.7 136 510.4 60 400 60s-226.7 75.9-230.2 203c-1.3 47.9 10.1 84.4 20.2 116.6 6 19.2 11.7 37.4 14.3 56.2 2.2 15.8 5.3 55.1-13.4 78.1a45 45 0 0 1-32.9 16.4l-6 .2a62.5 62.5 0 0 1-65-55.4c-1.8-25 8.3-37.2 14.5-42.2a26 26 0 0 1 22.9-5.8 22 22 0 0 1 15.7 23.5c-.6 6.5-4.4 10.9-9.7 11.3-3.9.3-7.4-1-10.1-2.1-4.6-1.8-5.5-1.9-7.3.4-.9 1.1-2.2 7.5 1.1 13.8 3.5 6.9 11 10.2 21.5 9.8a30 30 0 0 0 25-15.2 46 46 0 0 0 1-43.2c-10.4-21.9-34.2-35.3-61.9-34.7-27.4.5-63.1 16-81.1 57.8a138 138 0 0 0 7.2 119c24.5 45.1 71.3 75.8 131.8 86.3C262.1 672 396 564.1 397.4 563l2.6-2.2Z"/><path fill="#8e5cd9" d="M519.4 544.9c19.3 55.5 58.8 96.8 100.7 79.7 39.2-16.1 27.4-52.8 13.8-61.3-17.1-10.7-34.2 0-30.8 9.1 3.1 8 16.2.5 22.7 5.2 10 7.2 1.4 33.1-26.9 32.6-26.3-.4-38.2-30-37.2-46.7 2.7-44.1 61.7-80.2 119.5-37.3 67.1 49.8 58.6 165.7-34 204.1-93.6 38.9-224.1-10.6-247.2-131-23.1 120.4-153.6 169.9-247.2 131-92.5-38.4-101.1-154.2-34-204.1 57.8-42.9 116.8-6.8 119.5 37.3 1 16.6-10.9 46.2-37.2 46.7-28.3.5-36.9-25.4-26.9-32.6 6.5-4.7 19.7 2.8 22.7-5.2 3.5-9-13.6-19.8-30.8-9.1-13.6 8.5-25.4 45.3 13.8 61.3 41.9 17.2 81.4-24.1 100.7-79.7z"/><path fill="#6f42c1" d="M158.7 608.5c-11.6-17.4-2.6-39 7.5-45.2 17.1-10.7 34.2 0 30.8 9.1-3.1 8-16.2.5-22.7 5.2q-3.2 2.5-3.8 6.8c5.1-.9 13.2 1.2 17.9 2.1 7.5 1.4 22.5-1.1 20.2-22.1s-30.5-28.8-49.3-13c-19.7 16.4-18.1 49-.4 57.2Z"/><path fill="#c85fff" d="M287 568.6c10.7-32.5 48.7-24.1 44.4 5.2-5.1 34.5-38.2 78.1-89.8 87.1-67.1 11.7-89.4-31.1-89.4-31.1 20.6 12.8 96.8 50.9 134.8-61.2"/><path fill="#6f42c1" d="M702.6 652.2c-14.5 43.9-74 81.5-149 73.3C423.9 711.3 400 590.1 400 590.1s-23.9 121.3-153.6 135.4c-75 8.2-134.5-29.3-149-73.3a59 59 0 0 1 23.8 2.9c36 10.7 74.5 59.9 157.3 32.1 75.2-25.3 107.8-129 121.5-138.5 13.7 9.4 46.3 113.2 121.5 138.5 82.7 27.8 121.3-21.4 157.3-32.1a57 57 0 0 1 23.8-2.9"/><path fill="#ecb8ff" d="M269.7 718.1c-61 7.3-123.6-20.5-145-74.7-19.8-50.1 7.3-95.2 32.6-105.7 28.7-11.9 50 8.6 57.7 3.2 7.9-5.6-11.6-26.6-17.7-29.3-22.1-8.3-50.4-6.1-78.5 14.7-67.1 49.8-58.6 165.7 34 204.1 74.1 30.8 171.4 6.2 220.1-65.2-1.8 1.9-44.5 45.9-103.2 53Z"/><path fill="#d480e8" d="M246.4 725.5a183 183 0 0 0 61.6-17.4 149 149 0 0 1-38.3 10c-54.5 6.5-110.2-15-136.8-58.3a76 76 0 0 0-35.6-7.5c14.5 43.9 74 81.5 149 73.3Z"/><path fill="#6f42c1" d="M79.5 649.7c3 4.8 7.1 7.6 11.1 7 6.7-1.1 10.6-11.3 8.7-22.8s-8.8-20-15.5-18.9c-4.3.7-7.5 5.2-8.7 11.4q.9 11.8 4.2 23.3ZM83.3 587.2c5 3.2 14.1-2.2 20.4-12s7.4-20.4 2.4-23.6c-3.7-2.4-9.7 0-15.2 5.4q-6.8 11.5-10.7 24 .3 4.3 3.1 6.1ZM156.7 515.2c-1.1-2.6-4.2-4.1-8.3-4.5q-14.6 4.5-29.6 15.5l-.8.6q-1.1 2.9-.1 5.2c2.4 5.4 13 6.1 23.7 1.4s17.5-12.8 15.1-18.3ZM132.9 720.1l.6-.5c4.8-4.8 2-15.4-6.3-23.6s-18.8-11.1-23.6-6.3q-1.3 1.3-1.9 3.1a125 125 0 0 0 31.1 27.3ZM223.5 743.3c-.7-5.9-8.4-11.8-18.6-13.6-11.5-2.1-21.8 1.6-23 8.2l-.1 1.4q20.5 4.3 41.7 4"/><path fill="#fff" d="M228.5 558.8c6.8 30.6-22.2 52.6-42 48.8q6.1 2.5 14.5 2.5c26.3-.4 38.2-30 37.2-46.7-2.7-44.1-61.7-80.2-119.5-37.3-53.2 39.5-58.9 120.3-12.9 171.4-22.6-45.7-33.4-120.2 12.9-158.5 46.4-38.3 102.1-14.9 109.8 19.8" opacity=".4"/><path fill="#fff" d="M274.5 581.1c7.3-16.6 9.4-31.6 6.1-36.2q-5.5 15.7-12.9 29.5c-19.1 35.4-47.2 58.8-77.3 53.2q-5.3-1-10.5-3.1c-28.8-11.8-30.1-34.7-23.3-49.4-17.8 14.4-5.2 61.8 40.1 63.3 12.3 13.3 36.7 14.3 57.4 1.3 22.7-14.2 32.4-39.7 21.5-57l-1.1-1.7Z" opacity=".5"/><ellipse cx="276.9" cy="649.1" fill="#fff" opacity=".5" rx="17.9" ry="11.1" transform="rotate(-32 277.5 649.8)"/><path fill="#6f42c1" d="M641.3 608.5c11.6-17.4 2.6-39-7.5-45.2-17.1-10.7-34.2 0-30.8 9.1 3.1 8 16.2.5 22.7 5.2q3.2 2.5 3.8 6.8c-5.1-.9-13.2 1.2-17.9 2.1-7.5 1.4-22.5-1.1-20.2-22.1s30.5-28.8 49.3-13c19.7 16.4 18.1 49 .4 57.2Z"/><path fill="#c85fff" d="M513 568.6c-10.7-32.5-48.7-24.1-44.4 5.2 5.1 34.5 38.2 78.1 89.8 87.1 67.1 11.7 89.4-31.1 89.4-31.1-20.6 12.8-96.8 50.9-134.8-61.2"/><path fill="#ecb8ff" d="M530.3 718.1c61 7.3 123.6-20.5 145-74.7 19.8-50.1-7.3-95.2-32.6-105.7-28.7-11.9-50 8.6-57.7 3.2-7.9-5.6 11.6-26.6 17.7-29.3 22-8.3 50.4-6.1 78.5 14.7 67.1 49.8 58.6 165.7-34 204.1-74.1 30.8-171.4 6.2-220.1-65.2 1.8 1.9 44.5 45.9 103.2 53Z"/><path fill="#d480e8" d="M553.6 725.5a183 183 0 0 1-61.6-17.4c11.7 4.7 24.5 8.4 38.3 10 54.5 6.5 110.2-15 136.8-58.3a76 76 0 0 1 35.6-7.5c-14.5 43.9-74 81.5-149 73.3Z"/><path fill="#6f42c1" d="M720.5 649.7c-3 4.8-7.1 7.6-11.1 7-6.7-1.1-10.6-11.3-8.7-22.8s8.8-20 15.5-18.9c4.3.7 7.5 5.2 8.7 11.4q-.9 11.8-4.2 23.3ZM716.7 587.2c-5 3.2-14.1-2.2-20.4-12s-7.4-20.4-2.4-23.6c3.7-2.4 9.7 0 15.2 5.4q6.8 11.5 10.7 24-.3 4.3-3.1 6.1ZM643.3 515.2c1.1-2.6 4.2-4.1 8.3-4.5q14.7 4.5 29.6 15.5l.8.6q1.1 2.9.1 5.2c-2.4 5.4-13 6.1-23.7 1.4s-17.5-12.8-15.1-18.3ZM667.1 720.1l-.6-.5c-4.8-4.8-2-15.4 6.3-23.6s18.8-11.1 23.6-6.3q1.3 1.3 1.9 3.1a125 125 0 0 1-31.1 27.3ZM576.5 743.3c.7-5.9 8.4-11.8 18.6-13.6 11.5-2.1 21.8 1.6 23 8.2l.1 1.4a187 187 0 0 1-41.7 4"/><path fill="#fff" d="M571.5 558.8c-6.8 30.6 22.2 52.6 42 48.8a38 38 0 0 1-14.5 2.5c-26.3-.4-38.2-30-37.2-46.7 2.7-44.1 61.7-80.2 119.5-37.3 53.2 39.5 58.9 120.3 12.9 171.4 22.6-45.7 33.4-120.2-12.9-158.5-46.4-38.3-102.1-14.9-109.8 19.8" opacity=".4"/><path fill="#fff" d="M525.5 581.1c-7.3-16.6-9.4-31.6-6.1-36.2q5.5 15.7 12.9 29.5c19.1 35.4 47.2 58.8 77.3 53.2q5.3-1 10.5-3.1c28.8-11.8 30.1-34.7 23.3-49.4 17.8 14.4 5.2 61.8-40.1 63.3-12.3 13.3-36.7 14.3-57.4 1.3-22.7-14.2-32.4-39.7-21.5-57l1.1-1.7Z" opacity=".5"/><ellipse cx="523.1" cy="649.1" fill="#fff" opacity=".5" rx="11.1" ry="17.9" transform="rotate(-58 522.6 648.9)"/><path fill="#18005b" d="M520.4 544.6c15.8 29.2 31.7 63.9 64.3 76.7a45 45 0 0 0 31.6 0c15.2-5.3 28.1-17.4 25.9-34.6a29 29 0 0 0-10.3-19.5c-5.8-4-14.4-5.5-20.5-2.2-2.4 1.4-5.1 3.6-3.9 5.9l.2.2q.3.3 2 .4c4.6.2 8.4-1 13.9 0 8.9 1.6 12.4 12.1 10.2 19.8a29 29 0 0 1-11.8 16.8 41 41 0 0 1-28.7 6.1c-16.8-2.5-28.8-17.1-33.7-32.5-8.9-24.6 4.7-52.7 25.5-66.8a78 78 0 0 1 71.9-7.8c35 13.1 61.2 44 69.6 80.3A127 127 0 0 1 679 717.6c-83.7 60.3-214.6 26.7-263.4-62.8a182 182 0 0 1-19.8-55h8.2a190 190 0 0 1-10.1 34.6l-3.5 8.3c-1.3 2.6-4.7 9.6-6.2 12-37.6 68.1-121 103.6-196.8 90.4-48.6-8-93.1-37.9-109.9-85.6-15-40.2-7.9-88.4 20.4-121.1a106 106 0 0 1 63-36c38-6 79.1 20 82.1 60 1 23.1-14.1 49.7-38.9 51.9-15.8 1.6-34-6.4-38-23.2-1.8-6.4.3-15.5 7.1-18.7 4.2-2.1 9.7-1.5 13.2-1.2 1.8.1 4.6.3 5.8-.3q.8-1 .3-2.3c-2.9-5.6-11.7-6.6-17.7-4.7-15.1 4-20.8 24.2-14.8 37.5 4.2 9.7 13.9 16.1 23.8 19.6 34.5 12.6 63.2-19 79.1-46.2 6.1-9.8 11.3-20.1 16.7-30.6q.5-.8 1.4-.5.6.4.5 1.1-3.7 17.6-12 33.7c-16 31.4-50.7 64.7-88.8 50.6a48 48 0 0 1-28.9-24.3 40 40 0 0 1 3.9-37.9c3.6-5.6 9.9-10 16.4-11.8s14-1.8 20.5 1.5c5.5 2.8 10.4 8.9 8.8 15.6-1.8 7.6-9.5 8.8-15.8 8.1-3.7-.2-6.4-.8-8.9.5-2.3 1.9-2.5 5-1.8 8.1 2.9 11.8 16.7 17.2 28.1 16 19.5-1.8 30.9-24 30.2-41.9-2.7-34.2-38.6-56.1-71.1-50.8a97 97 0 0 0-62 39.3c-28.7 39-26.5 96 2.5 134.2 20.4 27.6 53 43.9 86.3 49.6 73.2 13.2 154.4-22 189.5-88.8a178 178 0 0 0 17.2-48.4l4.1-20 4.1 20a168.1 168.1 0 0 0 75 110.5c57.1 36.7 137.9 41.3 194.1.8a117 117 0 0 0 43.8-120c-4.5-19.1-14.3-37-28.3-50.7-26-25.5-65.9-37.8-97.9-16-17.6 12-29.3 34.7-22 55.7a39 39 0 0 0 18.9 23.9c9 4.2 20.9 3.3 29-2.2 5.5-3.7 10-10.9 8-17.2-1.6-4.2-6.1-2.8-10.5-2.7-3.9.2-7.4.6-11.4-1.8-6.6-4.3-5.6-13.9-.2-18.6 12.3-11.1 33.2-6 41.6 7a38.7 38.7 0 0 1-8.3 53.2 58 58 0 0 1-35.4 12.2c-42.7-1.1-74.7-49.7-82-87.6a1 1 0 0 1 .8-1.2q.8 0 1.1.6Z"/><path fill="#6f42c1" d="M431.7 390.9c1.4-7.7-17.7-26.6-31.7-26.6s-33.1 18.9-31.7 26.6c1.1 5.9 12.6 1.4 31.7 1.4s30.6 4.5 31.7-1.4"/><ellipse cx="297.9" cy="177.7" fill="#fff" opacity=".5" rx="92.7" ry="53.1" transform="rotate(-34.7 298.2 177.8)"/><path fill="#6f42c1" d="M516.1 483.1c10.8-3.8 18.2 10.9 8.7 17.3-27.5 18.5-68.5 36.1-124.8 36.1s-97.2-17.6-124.8-36.1c-9.5-6.4-2.1-21.1 8.7-17.3 29 10.3 68.7 19.8 116.1 19.8s87.1-9.5 116.1-19.8"/><path fill="none" stroke="#6f42c1" stroke-linecap="round" stroke-miterlimit="10" stroke-width="8" d="M544.4 206.3a173 173 0 0 1 22.8 88"/></svg>